<mxfile host="app.diagrams.net" agent="Mozilla/5.0 (Macintosh; Intel Mac OS X 10_15_7) AppleWebKit/537.36 (KHTML, like Gecko) Chrome/129.0.0.0 Safari/537.36" version="24.8.0">
  <diagram name="Page-1" id="PGreq11I9nm4x_GYmazr">
    <mxGraphModel dx="1434" dy="795" grid="1" gridSize="10" guides="1" tooltips="1" connect="1" arrows="1" fold="1" page="1" pageScale="1" pageWidth="1390" pageHeight="980" math="0" shadow="0">
      <root>
        <mxCell id="0" />
        <mxCell id="1" parent="0" />
        <mxCell id="WUzXvIJFiqFwQ053OuSz-1" value="" style="image;aspect=fixed;html=1;points=[];align=center;fontSize=12;image=img/lib/azure2/databases/Azure_Cosmos_DB.svg;movable=1;resizable=1;rotatable=1;deletable=1;editable=1;locked=0;connectable=1;" vertex="1" parent="1">
          <mxGeometry x="230" y="240" width="64" height="64" as="geometry" />
        </mxCell>
        <mxCell id="WUzXvIJFiqFwQ053OuSz-2" value="" style="image;aspect=fixed;html=1;points=[];align=center;fontSize=12;image=img/lib/azure2/compute/Container_Instances.svg;movable=1;resizable=1;rotatable=1;deletable=1;editable=1;locked=0;connectable=1;" vertex="1" parent="1">
          <mxGeometry x="440" y="238" width="64" height="68" as="geometry" />
        </mxCell>
        <mxCell id="WUzXvIJFiqFwQ053OuSz-3" value="Azure Cosmos DB for NoSQL" style="text;html=1;align=center;verticalAlign=middle;whiteSpace=wrap;rounded=0;movable=1;resizable=1;rotatable=1;deletable=1;editable=1;locked=0;connectable=1;" vertex="1" parent="1">
          <mxGeometry x="220" y="180" width="94" height="30" as="geometry" />
        </mxCell>
        <mxCell id="WUzXvIJFiqFwQ053OuSz-4" value="Azure Cosmos DB Container" style="text;html=1;align=center;verticalAlign=middle;whiteSpace=wrap;rounded=0;movable=1;resizable=1;rotatable=1;deletable=1;editable=1;locked=0;connectable=1;" vertex="1" parent="1">
          <mxGeometry x="420" y="180" width="94" height="30" as="geometry" />
        </mxCell>
        <mxCell id="WUzXvIJFiqFwQ053OuSz-6" value="Azure Synapse" style="text;html=1;align=center;verticalAlign=middle;whiteSpace=wrap;rounded=0;" vertex="1" parent="1">
          <mxGeometry x="648" y="180" width="94" height="30" as="geometry" />
        </mxCell>
        <mxCell id="WUzXvIJFiqFwQ053OuSz-7" value="" style="image;sketch=0;aspect=fixed;html=1;points=[];align=center;fontSize=12;image=img/lib/mscae/Azure_Pipelines.svg;" vertex="1" parent="1">
          <mxGeometry x="872" y="250" width="50" height="50" as="geometry" />
        </mxCell>
        <mxCell id="WUzXvIJFiqFwQ053OuSz-19" value="" style="whiteSpace=wrap;html=1;aspect=fixed;fillColor=none;" vertex="1" parent="1">
          <mxGeometry x="200" y="60" width="340" height="340" as="geometry" />
        </mxCell>
        <mxCell id="WUzXvIJFiqFwQ053OuSz-8" value="Azure Synapse Pipeline" style="text;html=1;align=center;verticalAlign=middle;whiteSpace=wrap;rounded=0;" vertex="1" parent="1">
          <mxGeometry x="850" y="190" width="94" height="30" as="geometry" />
        </mxCell>
        <mxCell id="WUzXvIJFiqFwQ053OuSz-9" value="" style="shape=image;html=1;verticalAlign=top;verticalLabelPosition=bottom;labelBackgroundColor=#ffffff;imageAspect=0;aspect=fixed;image=https://cdn0.iconfinder.com/data/icons/files-98/32/Copy-128.png" vertex="1" parent="1">
          <mxGeometry x="1008" y="196" width="58" height="58" as="geometry" />
        </mxCell>
        <mxCell id="WUzXvIJFiqFwQ053OuSz-10" value="Copy Data From Blob Storage (using pipeline activities)" style="text;html=1;align=center;verticalAlign=middle;whiteSpace=wrap;rounded=0;" vertex="1" parent="1">
          <mxGeometry x="990" y="156" width="168" height="30" as="geometry" />
        </mxCell>
        <mxCell id="WUzXvIJFiqFwQ053OuSz-11" value="" style="endArrow=classic;html=1;rounded=0;exitX=1.06;exitY=0.42;exitDx=0;exitDy=0;exitPerimeter=0;" edge="1" parent="1" source="WUzXvIJFiqFwQ053OuSz-7">
          <mxGeometry width="50" height="50" relative="1" as="geometry">
            <mxPoint x="1002" y="310" as="sourcePoint" />
            <mxPoint x="1192" y="271" as="targetPoint" />
          </mxGeometry>
        </mxCell>
        <mxCell id="WUzXvIJFiqFwQ053OuSz-12" value="" style="sketch=0;pointerEvents=1;shadow=0;dashed=0;html=1;strokeColor=none;fillColor=#DF8C42;labelPosition=center;verticalLabelPosition=bottom;verticalAlign=top;align=center;outlineConnect=0;shape=mxgraph.veeam2.azure_blob;" vertex="1" parent="1">
          <mxGeometry x="1066" y="196" width="52" height="50" as="geometry" />
        </mxCell>
        <mxCell id="WUzXvIJFiqFwQ053OuSz-13" value="" style="image;aspect=fixed;html=1;points=[];align=center;fontSize=12;image=img/lib/azure2/databases/Azure_Cosmos_DB.svg;" vertex="1" parent="1">
          <mxGeometry x="1195" y="240" width="64" height="64" as="geometry" />
        </mxCell>
        <mxCell id="WUzXvIJFiqFwQ053OuSz-15" value="" style="endArrow=classic;html=1;rounded=0;movable=1;resizable=1;rotatable=1;deletable=1;editable=1;locked=0;connectable=1;" edge="1" parent="1">
          <mxGeometry width="50" height="50" relative="1" as="geometry">
            <mxPoint x="314" y="270" as="sourcePoint" />
            <mxPoint x="430" y="270" as="targetPoint" />
          </mxGeometry>
        </mxCell>
        <mxCell id="WUzXvIJFiqFwQ053OuSz-14" value="Azure Cosmos DB for NoSQL" style="text;html=1;align=center;verticalAlign=middle;whiteSpace=wrap;rounded=0;" vertex="1" parent="1">
          <mxGeometry x="1180" y="190" width="94" height="30" as="geometry" />
        </mxCell>
        <mxCell id="WUzXvIJFiqFwQ053OuSz-18" value="Create Cosmos DB container" style="text;html=1;align=center;verticalAlign=middle;whiteSpace=wrap;rounded=0;movable=1;resizable=1;rotatable=1;deletable=1;editable=1;locked=0;connectable=1;" vertex="1" parent="1">
          <mxGeometry x="330" y="220" width="80" height="46" as="geometry" />
        </mxCell>
        <mxCell id="WUzXvIJFiqFwQ053OuSz-17" value="" style="endArrow=classic;html=1;rounded=0;exitX=0.967;exitY=0.5;exitDx=0;exitDy=0;exitPerimeter=0;" edge="1" parent="1" source="WUzXvIJFiqFwQ053OuSz-24">
          <mxGeometry width="50" height="50" relative="1" as="geometry">
            <mxPoint x="729" y="274.5" as="sourcePoint" />
            <mxPoint x="865" y="275" as="targetPoint" />
          </mxGeometry>
        </mxCell>
        <mxCell id="WUzXvIJFiqFwQ053OuSz-22" value="" style="rounded=0;whiteSpace=wrap;html=1;fillColor=none;" vertex="1" parent="1">
          <mxGeometry x="609" y="55" width="721" height="340" as="geometry" />
        </mxCell>
        <mxCell id="WUzXvIJFiqFwQ053OuSz-20" value="&lt;font style=&quot;font-size: 16px;&quot;&gt;&lt;b&gt;Create Cosmos DB Resources&lt;/b&gt;&lt;/font&gt;" style="text;html=1;align=center;verticalAlign=middle;whiteSpace=wrap;rounded=0;" vertex="1" parent="1">
          <mxGeometry x="270" y="70" width="210" height="50" as="geometry" />
        </mxCell>
        <mxCell id="WUzXvIJFiqFwQ053OuSz-23" value="&lt;font style=&quot;font-size: 16px;&quot;&gt;&lt;b&gt;Copy Data from Blob Storage to Cosmos DB for NoSQL Using Azure Data Factory&lt;/b&gt;&lt;/font&gt;" style="text;html=1;align=center;verticalAlign=middle;whiteSpace=wrap;rounded=0;" vertex="1" parent="1">
          <mxGeometry x="754.5" y="70" width="430" height="50" as="geometry" />
        </mxCell>
        <mxCell id="WUzXvIJFiqFwQ053OuSz-24" value="" style="image;aspect=fixed;html=1;points=[];align=center;fontSize=12;image=img/lib/azure2/analytics/Azure_Synapse_Analytics.svg;" vertex="1" parent="1">
          <mxGeometry x="665" y="240.5" width="60" height="69" as="geometry" />
        </mxCell>
      </root>
    </mxGraphModel>
  </diagram>
</mxfile>
